<mxfile host="app.diagrams.net" modified="2022-03-08T07:18:51.061Z" agent="5.0 (Macintosh; Intel Mac OS X 10_15_7) AppleWebKit/537.36 (KHTML, like Gecko) Chrome/97.0.4692.99 Safari/537.36" etag="1Bb8TFg1mbFp-xPdo4NR" version="15.0.3" type="github">
  <diagram id="C5RBs43oDa-KdzZeNtuy" name="Page-1">
    <mxGraphModel dx="2066" dy="1154" grid="1" gridSize="10" guides="1" tooltips="1" connect="1" arrows="1" fold="1" page="1" pageScale="1" pageWidth="1169" pageHeight="1654" math="0" shadow="0">
      <root>
        <mxCell id="WIyWlLk6GJQsqaUBKTNV-0" />
        <mxCell id="WIyWlLk6GJQsqaUBKTNV-1" parent="WIyWlLk6GJQsqaUBKTNV-0" />
        <mxCell id="WIyWlLk6GJQsqaUBKTNV-2" value="" style="rounded=0;html=1;jettySize=auto;orthogonalLoop=1;fontSize=11;endArrow=block;endFill=0;endSize=8;strokeWidth=1;shadow=0;labelBackgroundColor=none;edgeStyle=orthogonalEdgeStyle;verticalAlign=middle;align=center;" parent="WIyWlLk6GJQsqaUBKTNV-1" source="WIyWlLk6GJQsqaUBKTNV-3" target="WIyWlLk6GJQsqaUBKTNV-6" edge="1">
          <mxGeometry relative="1" as="geometry" />
        </mxCell>
        <mxCell id="WIyWlLk6GJQsqaUBKTNV-4" value="Yes" style="rounded=0;html=1;jettySize=auto;orthogonalLoop=1;fontSize=11;endArrow=block;endFill=0;endSize=8;strokeWidth=1;shadow=0;labelBackgroundColor=none;edgeStyle=orthogonalEdgeStyle;verticalAlign=middle;align=center;" parent="WIyWlLk6GJQsqaUBKTNV-1" source="WIyWlLk6GJQsqaUBKTNV-6" edge="1">
          <mxGeometry y="20" relative="1" as="geometry">
            <mxPoint as="offset" />
            <mxPoint x="434" y="430" as="targetPoint" />
          </mxGeometry>
        </mxCell>
        <mxCell id="WIyWlLk6GJQsqaUBKTNV-5" value="No" style="edgeStyle=orthogonalEdgeStyle;rounded=0;html=1;jettySize=auto;orthogonalLoop=1;fontSize=11;endArrow=block;endFill=0;endSize=8;strokeWidth=1;shadow=0;labelBackgroundColor=none;verticalAlign=middle;align=center;" parent="WIyWlLk6GJQsqaUBKTNV-1" source="WIyWlLk6GJQsqaUBKTNV-6" target="WIyWlLk6GJQsqaUBKTNV-7" edge="1">
          <mxGeometry y="10" relative="1" as="geometry">
            <mxPoint as="offset" />
          </mxGeometry>
        </mxCell>
        <mxCell id="WIyWlLk6GJQsqaUBKTNV-6" value="同步完成" style="rhombus;whiteSpace=wrap;html=1;shadow=0;fontFamily=Helvetica;fontSize=12;align=center;strokeWidth=1;spacing=6;spacingTop=-4;verticalAlign=middle;" parent="WIyWlLk6GJQsqaUBKTNV-1" vertex="1">
          <mxGeometry x="384" y="285" width="100" height="80" as="geometry" />
        </mxCell>
        <mxCell id="b5Mt_fPdI5iNJ6w0Xpzc-1" style="edgeStyle=orthogonalEdgeStyle;rounded=0;orthogonalLoop=1;jettySize=auto;html=1;entryX=1;entryY=0.25;entryDx=0;entryDy=0;verticalAlign=middle;align=center;" edge="1" parent="WIyWlLk6GJQsqaUBKTNV-1" source="WIyWlLk6GJQsqaUBKTNV-7" target="WIyWlLk6GJQsqaUBKTNV-3">
          <mxGeometry relative="1" as="geometry">
            <Array as="points">
              <mxPoint x="594" y="200" />
            </Array>
          </mxGeometry>
        </mxCell>
        <mxCell id="b5Mt_fPdI5iNJ6w0Xpzc-28" style="edgeStyle=orthogonalEdgeStyle;rounded=0;orthogonalLoop=1;jettySize=auto;html=1;entryX=1;entryY=0.5;entryDx=0;entryDy=0;verticalAlign=middle;align=center;" edge="1" parent="WIyWlLk6GJQsqaUBKTNV-1" source="WIyWlLk6GJQsqaUBKTNV-7" target="b5Mt_fPdI5iNJ6w0Xpzc-8">
          <mxGeometry relative="1" as="geometry">
            <Array as="points">
              <mxPoint x="594" y="510" />
            </Array>
          </mxGeometry>
        </mxCell>
        <mxCell id="WIyWlLk6GJQsqaUBKTNV-7" value="信息补充" style="rounded=1;whiteSpace=wrap;html=1;fontSize=12;glass=0;strokeWidth=1;shadow=0;verticalAlign=middle;align=center;" parent="WIyWlLk6GJQsqaUBKTNV-1" vertex="1">
          <mxGeometry x="534" y="305" width="120" height="40" as="geometry" />
        </mxCell>
        <mxCell id="b5Mt_fPdI5iNJ6w0Xpzc-0" value="销售部门-需求部门" style="swimlane;horizontal=0;fillColor=#dae8fc;strokeColor=#6c8ebf;verticalAlign=middle;align=center;" vertex="1" parent="WIyWlLk6GJQsqaUBKTNV-1">
          <mxGeometry x="164" y="170" width="600" height="220" as="geometry" />
        </mxCell>
        <mxCell id="WIyWlLk6GJQsqaUBKTNV-3" value="项目信息同步" style="rounded=1;whiteSpace=wrap;html=1;fontSize=12;glass=0;strokeWidth=1;shadow=0;verticalAlign=middle;align=center;" parent="b5Mt_fPdI5iNJ6w0Xpzc-0" vertex="1">
          <mxGeometry x="210" y="20" width="120" height="40" as="geometry" />
        </mxCell>
        <mxCell id="b5Mt_fPdI5iNJ6w0Xpzc-10" value="项目邮件、OA" style="shape=document;whiteSpace=wrap;html=1;boundedLbl=1;verticalAlign=middle;align=center;" vertex="1" parent="b5Mt_fPdI5iNJ6w0Xpzc-0">
          <mxGeometry x="150" y="60" width="100" height="40" as="geometry" />
        </mxCell>
        <mxCell id="b5Mt_fPdI5iNJ6w0Xpzc-29" value="项目进展、友商情报" style="shape=document;whiteSpace=wrap;html=1;boundedLbl=1;verticalAlign=middle;align=center;" vertex="1" parent="b5Mt_fPdI5iNJ6w0Xpzc-0">
          <mxGeometry x="440" y="170" width="120" height="40" as="geometry" />
        </mxCell>
        <mxCell id="b5Mt_fPdI5iNJ6w0Xpzc-2" value="吴钩实验室-攻防研究组" style="swimlane;horizontal=0;fillColor=#fff2cc;strokeColor=#d6b656;verticalAlign=middle;align=center;" vertex="1" parent="WIyWlLk6GJQsqaUBKTNV-1">
          <mxGeometry x="164" y="390" width="602" height="600" as="geometry" />
        </mxCell>
        <mxCell id="b5Mt_fPdI5iNJ6w0Xpzc-9" value="" style="edgeStyle=orthogonalEdgeStyle;rounded=0;orthogonalLoop=1;jettySize=auto;html=1;verticalAlign=middle;align=center;" edge="1" parent="b5Mt_fPdI5iNJ6w0Xpzc-2" source="b5Mt_fPdI5iNJ6w0Xpzc-3" target="b5Mt_fPdI5iNJ6w0Xpzc-8">
          <mxGeometry relative="1" as="geometry" />
        </mxCell>
        <mxCell id="b5Mt_fPdI5iNJ6w0Xpzc-3" value="目标调研" style="rounded=1;whiteSpace=wrap;html=1;fontSize=12;glass=0;strokeWidth=1;shadow=0;verticalAlign=middle;align=center;" vertex="1" parent="b5Mt_fPdI5iNJ6w0Xpzc-2">
          <mxGeometry x="210" y="30" width="120" height="40" as="geometry" />
        </mxCell>
        <mxCell id="b5Mt_fPdI5iNJ6w0Xpzc-12" value="" style="edgeStyle=orthogonalEdgeStyle;rounded=0;orthogonalLoop=1;jettySize=auto;html=1;verticalAlign=middle;align=center;" edge="1" parent="b5Mt_fPdI5iNJ6w0Xpzc-2" source="b5Mt_fPdI5iNJ6w0Xpzc-8" target="b5Mt_fPdI5iNJ6w0Xpzc-11">
          <mxGeometry relative="1" as="geometry" />
        </mxCell>
        <mxCell id="b5Mt_fPdI5iNJ6w0Xpzc-8" value="信息收集" style="rounded=1;whiteSpace=wrap;html=1;fontSize=12;glass=0;strokeWidth=1;shadow=0;verticalAlign=middle;align=center;" vertex="1" parent="b5Mt_fPdI5iNJ6w0Xpzc-2">
          <mxGeometry x="210" y="100" width="120" height="40" as="geometry" />
        </mxCell>
        <mxCell id="b5Mt_fPdI5iNJ6w0Xpzc-15" value="" style="edgeStyle=orthogonalEdgeStyle;rounded=0;orthogonalLoop=1;jettySize=auto;html=1;verticalAlign=middle;align=center;" edge="1" parent="b5Mt_fPdI5iNJ6w0Xpzc-2" source="b5Mt_fPdI5iNJ6w0Xpzc-11">
          <mxGeometry relative="1" as="geometry">
            <mxPoint x="270" y="240" as="targetPoint" />
          </mxGeometry>
        </mxCell>
        <mxCell id="b5Mt_fPdI5iNJ6w0Xpzc-11" value="边界突破" style="rounded=1;whiteSpace=wrap;html=1;fontSize=12;glass=0;strokeWidth=1;shadow=0;verticalAlign=middle;align=center;" vertex="1" parent="b5Mt_fPdI5iNJ6w0Xpzc-2">
          <mxGeometry x="210" y="165" width="120" height="40" as="geometry" />
        </mxCell>
        <mxCell id="b5Mt_fPdI5iNJ6w0Xpzc-17" style="edgeStyle=orthogonalEdgeStyle;rounded=0;orthogonalLoop=1;jettySize=auto;html=1;entryX=0;entryY=0.5;entryDx=0;entryDy=0;verticalAlign=middle;align=center;" edge="1" parent="b5Mt_fPdI5iNJ6w0Xpzc-2" source="b5Mt_fPdI5iNJ6w0Xpzc-16" target="b5Mt_fPdI5iNJ6w0Xpzc-8">
          <mxGeometry relative="1" as="geometry">
            <Array as="points">
              <mxPoint x="190" y="280" />
              <mxPoint x="190" y="120" />
            </Array>
          </mxGeometry>
        </mxCell>
        <mxCell id="b5Mt_fPdI5iNJ6w0Xpzc-18" value="否" style="edgeLabel;html=1;align=center;verticalAlign=middle;resizable=0;points=[];" vertex="1" connectable="0" parent="b5Mt_fPdI5iNJ6w0Xpzc-17">
          <mxGeometry x="0.0667" relative="1" as="geometry">
            <mxPoint as="offset" />
          </mxGeometry>
        </mxCell>
        <mxCell id="b5Mt_fPdI5iNJ6w0Xpzc-20" value="" style="edgeStyle=orthogonalEdgeStyle;rounded=0;orthogonalLoop=1;jettySize=auto;html=1;verticalAlign=middle;align=center;" edge="1" parent="b5Mt_fPdI5iNJ6w0Xpzc-2" source="b5Mt_fPdI5iNJ6w0Xpzc-16" target="b5Mt_fPdI5iNJ6w0Xpzc-19">
          <mxGeometry relative="1" as="geometry" />
        </mxCell>
        <mxCell id="b5Mt_fPdI5iNJ6w0Xpzc-21" value="是" style="edgeLabel;html=1;align=center;verticalAlign=middle;resizable=0;points=[];" vertex="1" connectable="0" parent="b5Mt_fPdI5iNJ6w0Xpzc-20">
          <mxGeometry x="-0.5333" y="3" relative="1" as="geometry">
            <mxPoint as="offset" />
          </mxGeometry>
        </mxCell>
        <mxCell id="b5Mt_fPdI5iNJ6w0Xpzc-16" value="是否突破" style="rhombus;whiteSpace=wrap;html=1;shadow=0;fontFamily=Helvetica;fontSize=12;align=center;strokeWidth=1;spacing=6;spacingTop=-4;verticalAlign=middle;" vertex="1" parent="b5Mt_fPdI5iNJ6w0Xpzc-2">
          <mxGeometry x="220" y="240" width="100" height="80" as="geometry" />
        </mxCell>
        <mxCell id="b5Mt_fPdI5iNJ6w0Xpzc-23" value="" style="edgeStyle=orthogonalEdgeStyle;rounded=0;orthogonalLoop=1;jettySize=auto;html=1;verticalAlign=middle;align=center;" edge="1" parent="b5Mt_fPdI5iNJ6w0Xpzc-2" source="b5Mt_fPdI5iNJ6w0Xpzc-19" target="b5Mt_fPdI5iNJ6w0Xpzc-22">
          <mxGeometry relative="1" as="geometry" />
        </mxCell>
        <mxCell id="b5Mt_fPdI5iNJ6w0Xpzc-19" value="内网(域渗透)实施" style="rounded=1;whiteSpace=wrap;html=1;fontSize=12;glass=0;strokeWidth=1;shadow=0;verticalAlign=middle;align=center;" vertex="1" parent="b5Mt_fPdI5iNJ6w0Xpzc-2">
          <mxGeometry x="210" y="358" width="120" height="40" as="geometry" />
        </mxCell>
        <mxCell id="b5Mt_fPdI5iNJ6w0Xpzc-27" value="是" style="edgeStyle=orthogonalEdgeStyle;rounded=0;orthogonalLoop=1;jettySize=auto;html=1;verticalAlign=middle;align=center;" edge="1" parent="b5Mt_fPdI5iNJ6w0Xpzc-2" source="b5Mt_fPdI5iNJ6w0Xpzc-22" target="b5Mt_fPdI5iNJ6w0Xpzc-24">
          <mxGeometry relative="1" as="geometry" />
        </mxCell>
        <mxCell id="b5Mt_fPdI5iNJ6w0Xpzc-34" value="否" style="edgeStyle=orthogonalEdgeStyle;rounded=0;orthogonalLoop=1;jettySize=auto;html=1;entryX=1;entryY=0.5;entryDx=0;entryDy=0;align=center;verticalAlign=middle;" edge="1" parent="b5Mt_fPdI5iNJ6w0Xpzc-2" source="b5Mt_fPdI5iNJ6w0Xpzc-22" target="b5Mt_fPdI5iNJ6w0Xpzc-19">
          <mxGeometry relative="1" as="geometry">
            <Array as="points">
              <mxPoint x="350" y="470" />
              <mxPoint x="350" y="378" />
            </Array>
          </mxGeometry>
        </mxCell>
        <mxCell id="b5Mt_fPdI5iNJ6w0Xpzc-22" value="获取靶标" style="rhombus;whiteSpace=wrap;html=1;shadow=0;fontFamily=Helvetica;fontSize=12;align=center;strokeWidth=1;spacing=6;spacingTop=-4;verticalAlign=middle;" vertex="1" parent="b5Mt_fPdI5iNJ6w0Xpzc-2">
          <mxGeometry x="220" y="430" width="100" height="80" as="geometry" />
        </mxCell>
        <mxCell id="b5Mt_fPdI5iNJ6w0Xpzc-24" value="输出报告" style="rounded=1;whiteSpace=wrap;html=1;fontSize=12;glass=0;strokeWidth=1;shadow=0;verticalAlign=middle;align=center;" vertex="1" parent="b5Mt_fPdI5iNJ6w0Xpzc-2">
          <mxGeometry x="210" y="540" width="120" height="40" as="geometry" />
        </mxCell>
        <mxCell id="b5Mt_fPdI5iNJ6w0Xpzc-26" value="红队评估报告" style="shape=document;whiteSpace=wrap;html=1;boundedLbl=1;verticalAlign=middle;align=center;" vertex="1" parent="b5Mt_fPdI5iNJ6w0Xpzc-2">
          <mxGeometry x="330" y="540" width="100" height="40" as="geometry" />
        </mxCell>
        <mxCell id="b5Mt_fPdI5iNJ6w0Xpzc-31" value="客户" style="swimlane;horizontal=0;align=center;verticalAlign=middle;fillColor=#d5e8d4;strokeColor=#82b366;" vertex="1" parent="b5Mt_fPdI5iNJ6w0Xpzc-2">
          <mxGeometry y="600" width="602" height="120" as="geometry" />
        </mxCell>
        <mxCell id="b5Mt_fPdI5iNJ6w0Xpzc-25" value="项目同步" style="rounded=1;whiteSpace=wrap;html=1;fontSize=12;glass=0;strokeWidth=1;shadow=0;verticalAlign=middle;align=center;" vertex="1" parent="b5Mt_fPdI5iNJ6w0Xpzc-31">
          <mxGeometry x="210" y="50" width="120" height="40" as="geometry" />
        </mxCell>
        <mxCell id="b5Mt_fPdI5iNJ6w0Xpzc-33" value="报告补充" style="shape=document;whiteSpace=wrap;html=1;boundedLbl=1;verticalAlign=middle;align=center;" vertex="1" parent="b5Mt_fPdI5iNJ6w0Xpzc-31">
          <mxGeometry x="330" y="50" width="100" height="40" as="geometry" />
        </mxCell>
        <mxCell id="b5Mt_fPdI5iNJ6w0Xpzc-30" value="" style="edgeStyle=orthogonalEdgeStyle;rounded=0;orthogonalLoop=1;jettySize=auto;html=1;verticalAlign=middle;align=center;" edge="1" parent="b5Mt_fPdI5iNJ6w0Xpzc-2" source="b5Mt_fPdI5iNJ6w0Xpzc-24" target="b5Mt_fPdI5iNJ6w0Xpzc-25">
          <mxGeometry relative="1" as="geometry" />
        </mxCell>
        <mxCell id="b5Mt_fPdI5iNJ6w0Xpzc-35" value="安全交付中心" style="swimlane;horizontal=0;align=center;verticalAlign=middle;fillColor=#e1d5e7;strokeColor=#9673a6;" vertex="1" parent="WIyWlLk6GJQsqaUBKTNV-1">
          <mxGeometry x="164" y="1110" width="602" height="210" as="geometry" />
        </mxCell>
        <mxCell id="b5Mt_fPdI5iNJ6w0Xpzc-40" value="" style="edgeStyle=orthogonalEdgeStyle;rounded=0;orthogonalLoop=1;jettySize=auto;html=1;align=center;verticalAlign=middle;" edge="1" parent="b5Mt_fPdI5iNJ6w0Xpzc-35" source="b5Mt_fPdI5iNJ6w0Xpzc-36" target="b5Mt_fPdI5iNJ6w0Xpzc-39">
          <mxGeometry relative="1" as="geometry" />
        </mxCell>
        <mxCell id="b5Mt_fPdI5iNJ6w0Xpzc-36" value="项目复盘" style="rounded=1;whiteSpace=wrap;html=1;fontSize=12;glass=0;strokeWidth=1;shadow=0;verticalAlign=middle;align=center;" vertex="1" parent="b5Mt_fPdI5iNJ6w0Xpzc-35">
          <mxGeometry x="210" y="50" width="120" height="40" as="geometry" />
        </mxCell>
        <mxCell id="b5Mt_fPdI5iNJ6w0Xpzc-37" value="复盘总结(问题、经验、教训、解决办法)" style="shape=document;whiteSpace=wrap;html=1;boundedLbl=1;verticalAlign=middle;align=center;" vertex="1" parent="b5Mt_fPdI5iNJ6w0Xpzc-35">
          <mxGeometry x="330" y="50" width="120" height="50" as="geometry" />
        </mxCell>
        <mxCell id="b5Mt_fPdI5iNJ6w0Xpzc-39" value="内部文库" style="rounded=1;whiteSpace=wrap;html=1;fontSize=12;glass=0;strokeWidth=1;shadow=0;verticalAlign=middle;align=center;" vertex="1" parent="b5Mt_fPdI5iNJ6w0Xpzc-35">
          <mxGeometry x="210" y="120" width="120" height="40" as="geometry" />
        </mxCell>
        <mxCell id="b5Mt_fPdI5iNJ6w0Xpzc-41" value="技术形式文章沉淀" style="shape=document;whiteSpace=wrap;html=1;boundedLbl=1;verticalAlign=middle;align=center;" vertex="1" parent="b5Mt_fPdI5iNJ6w0Xpzc-35">
          <mxGeometry x="330" y="120" width="120" height="50" as="geometry" />
        </mxCell>
        <mxCell id="b5Mt_fPdI5iNJ6w0Xpzc-38" style="edgeStyle=orthogonalEdgeStyle;rounded=0;orthogonalLoop=1;jettySize=auto;html=1;align=center;verticalAlign=middle;" edge="1" parent="WIyWlLk6GJQsqaUBKTNV-1" source="b5Mt_fPdI5iNJ6w0Xpzc-25" target="b5Mt_fPdI5iNJ6w0Xpzc-36">
          <mxGeometry relative="1" as="geometry" />
        </mxCell>
      </root>
    </mxGraphModel>
  </diagram>
</mxfile>
